<svg xmlns="http://www.w3.org/2000/svg" data-name="Layer 1" viewBox="0 0 128 128"><circle cx="64" cy="64" r="60" fill="none" stroke="#dd4b39" stroke-miterlimit="10" stroke-width="8"/><path fill="#dd4b39" fill-rule="evenodd" d="M49,61v8H63c-.54,3.46-3.68,10-13,10a15,15,0,1,1,0-30,12.32,12.32,0,0,1,9,4l6.32-6.39C61.22,42.78,56.36,40,50,40a24,24,0,1,0,0,48c13.59,0,22-9.55,22-23a26.34,26.34,0,0,0,0-4Z"/><polygon fill="#dd4b39" fill-rule="evenodd" points="102 61 94 61 94 53 86 53 86 61 78 61 78 69 86 69 86 77 94 77 94 69 102 69 102 61"/></svg>